<?xml version="1.0" encoding="UTF-8" standalone="no"?>
<svg width="40px" height="90px" viewBox="0 0 40 90" version="1.1" xmlns="http://www.w3.org/2000/svg" xmlns:xlink="http://www.w3.org/1999/xlink" xmlns:sketch="http://www.bohemiancoding.com/sketch/ns">
    <!-- Generator: Sketch 3.2.2 (9983) - http://www.bohemiancoding.com/sketch -->
    <title>Slice 1</title>
    <desc>Created with Sketch.</desc>
    <defs></defs>
    <g id="Page-1" stroke="none" stroke-width="1" fill="none" fill-rule="evenodd" sketch:type="MSPage">
        <path d="M33.555,38.348 C33.555,38.348 32.86,37.407 32.163,31.677 C31.466,25.946 28.505,22.269 28.071,21.498 C27.635,20.728 26.416,17.82 26.937,11.492 C26.937,11.492 28.941,10.979 27.025,5.505 L27.895,5.163 C27.895,5.163 29.203,0.031 24.064,0.031 L20.29,0.031 L19.71,0.031 L15.936,0.031 C10.799,0.031 12.105,5.163 12.105,5.163 L12.977,5.505 C11.061,10.979 13.063,11.492 13.063,11.492 C13.586,17.82 12.367,20.729 11.931,21.498 C11.495,22.269 8.536,25.945 7.839,31.677 C7.143,37.407 6.447,38.348 6.447,38.348 C0.36,43.822 0.259,46.91 0.396,50.229 C0.824,60.634 0.526,71.208 0.526,80.617 C0.526,89.764 7.143,90 7.143,90 L19.71,90 L20.29,90 L32.859,90 C32.859,90 39.476,89.765 39.476,80.617 C39.476,71.209 39.176,60.635 39.604,50.229 C39.741,46.91 39.641,43.822 33.555,38.348 L33.555,38.348 Z" id="Shape" fill="#000000" sketch:type="MSShapeGroup"></path>
    </g>
</svg>